<svg width="836" height="118" viewBox="0 0 836 118" fill="none" xmlns="http://www.w3.org/2000/svg">
<path d="M2.492 17.3711V0.571093H6.38V17.3711H2.492ZM17.3559 17.3711L11.8599 0.571093H15.8919L20.6679 15.4511H18.6519L23.6439 0.571093H27.2439L32.0439 15.4511H30.0999L34.9959 0.571093H38.7159L33.2199 17.3711H29.0439L24.7959 4.31509H25.8999L21.5319 17.3711H17.3559ZM38.9664 17.3711V0.571093H42.8544V17.3711H38.9664ZM44.9214 17.3711V0.571093H48.8094V14.2031H57.2334V17.3711H44.9214ZM57.4858 17.3711V0.571093H61.3738V14.2031H69.7978V17.3711H57.4858Z" fill="#3ECF8E" fill-opacity="0.8"/>
<g clip-path="url(#clip0_113_5)">
<path opacity="0.38" d="M3.98242 49.2578L374.083 49.2578" stroke="white" stroke-width="2" stroke-linecap="square"/>
<path opacity="0.38" d="M3.15625 17.3711V112.424" stroke="#DDDDDD" stroke-width="2" stroke-linecap="square"/>
<path opacity="0.38" d="M69.5332 17.3711V112.42" stroke="white" stroke-width="2" stroke-linecap="square"/>
<path opacity="0.38" d="M3.96094 96.4004L374.062 96.4004" stroke="white" stroke-width="2" stroke-linecap="square"/>
<path opacity="0.38" d="M3.98242 66.8359L374.089 66.836" stroke="white" stroke-width="2" stroke-linecap="square"/>
<path opacity="0.38" d="M3.97266 114.42L374.073 114.42" stroke="white" stroke-width="2" stroke-linecap="square"/>
<g filter="url(#filter0_d_113_5)">
<path d="M2.968 115.414V48.2141H33.496C40.792 48.2141 47.224 49.6221 52.792 52.4381C58.36 55.1901 62.712 59.0621 65.848 64.0541C68.984 69.0461 70.552 74.9661 70.552 81.8141C70.552 88.5981 68.984 94.5181 65.848 99.5741C62.712 104.566 58.36 108.47 52.792 111.286C47.224 114.038 40.792 115.414 33.496 115.414H2.968ZM18.52 102.646H32.728C37.208 102.646 41.08 101.814 44.344 100.15C47.672 98.4221 50.232 95.9901 52.024 92.8541C53.88 89.7181 54.808 86.0381 54.808 81.8141C54.808 77.5261 53.88 73.8461 52.024 70.7741C50.232 67.6381 47.672 65.2381 44.344 63.5741C41.08 61.8461 37.208 60.9821 32.728 60.9821H18.52V102.646ZM96.5845 75.2861H128.937V87.3821H96.5845V75.2861ZM97.7365 102.934H134.312V115.414H82.2805V48.2141H133.065V60.6941H97.7365V102.934ZM168.767 116.566C163.391 116.566 158.239 115.862 153.311 114.454C148.383 112.982 144.415 111.094 141.407 108.79L146.687 97.0781C149.567 99.1261 152.959 100.822 156.863 102.166C160.831 103.446 164.831 104.086 168.863 104.086C171.935 104.086 174.399 103.798 176.255 103.222C178.175 102.582 179.583 101.718 180.479 100.63C181.375 99.5421 181.823 98.2941 181.823 96.8861C181.823 95.0941 181.119 93.6861 179.711 92.6621C178.303 91.5741 176.447 90.7101 174.143 90.0701C171.839 89.3661 169.279 88.7261 166.463 88.1501C163.711 87.5101 160.927 86.7421 158.111 85.8461C155.359 84.9501 152.831 83.7981 150.527 82.3901C148.223 80.9821 146.335 79.1261 144.863 76.8221C143.455 74.5181 142.751 71.5741 142.751 67.9901C142.751 64.1501 143.775 60.6621 145.823 57.5261C147.935 54.3261 151.071 51.7981 155.231 49.9421C159.455 48.0221 164.735 47.0621 171.071 47.0621C175.295 47.0621 179.455 47.5741 183.551 48.5981C187.647 49.5581 191.263 51.0301 194.399 53.0141L189.599 64.8221C186.463 63.0301 183.327 61.7181 180.191 60.8861C177.055 59.9901 173.983 59.5421 170.975 59.5421C167.967 59.5421 165.503 59.8941 163.583 60.5981C161.663 61.3021 160.287 62.2301 159.455 63.3821C158.623 64.4701 158.207 65.7501 158.207 67.2221C158.207 68.9501 158.911 70.3581 160.319 71.4461C161.727 72.4701 163.583 73.3021 165.887 73.9421C168.191 74.5821 170.719 75.2221 173.471 75.8621C176.287 76.5021 179.071 77.2381 181.823 78.0701C184.639 78.9021 187.199 80.0221 189.503 81.4301C191.807 82.8381 193.663 84.6941 195.071 86.9981C196.543 89.3021 197.279 92.2141 197.279 95.7341C197.279 99.5101 196.223 102.966 194.111 106.102C191.999 109.238 188.831 111.766 184.607 113.686C180.447 115.606 175.167 116.566 168.767 116.566ZM207.906 115.414V48.2141H223.458V115.414H207.906ZM271.854 116.566C266.542 116.566 261.646 115.734 257.166 114.07C252.75 112.342 248.878 109.91 245.549 106.774C242.286 103.638 239.726 99.9581 237.87 95.7341C236.078 91.5101 235.182 86.8701 235.182 81.8141C235.182 76.7581 236.078 72.1181 237.87 67.8941C239.726 63.6701 242.318 59.9901 245.646 56.8541C248.974 53.7181 252.878 51.3181 257.358 49.6541C261.838 47.9261 266.766 47.0621 272.142 47.0621C278.094 47.0621 283.438 48.0541 288.174 50.0381C292.974 52.0221 297.006 54.9021 300.27 58.6781L290.286 67.8941C287.854 65.3341 285.198 63.4461 282.318 62.2301C279.438 60.9501 276.302 60.3101 272.91 60.3101C269.646 60.3101 266.67 60.8221 263.982 61.8461C261.294 62.8701 258.958 64.3421 256.974 66.2621C255.054 68.1821 253.55 70.4541 252.462 73.0781C251.438 75.7021 250.926 78.6141 250.926 81.8141C250.926 84.9501 251.438 87.8301 252.462 90.4541C253.55 93.0781 255.054 95.3821 256.974 97.3661C258.958 99.2861 261.262 100.758 263.886 101.782C266.574 102.806 269.518 103.318 272.718 103.318C275.79 103.318 278.766 102.838 281.646 101.878C284.59 100.854 287.438 99.1581 290.19 96.7901L299.022 108.022C295.374 110.774 291.118 112.886 286.254 114.358C281.454 115.83 276.654 116.566 271.854 116.566ZM284.814 106.006V80.7581H299.022V108.022L284.814 106.006ZM313.468 115.414V48.2141H326.332L365.98 96.5981H359.74V48.2141H375.1V115.414H362.332L322.588 67.0301H328.828V115.414H313.468Z" fill="#3ECF8E"/>
</g>
</g>
<defs>
<filter id="filter0_d_113_5" x="-4.33125" y="39.7625" width="386.731" height="84.1039" filterUnits="userSpaceOnUse" color-interpolation-filters="sRGB">
<feFlood flood-opacity="0" result="BackgroundImageFix"/>
<feColorMatrix in="SourceAlpha" type="matrix" values="0 0 0 0 0 0 0 0 0 0 0 0 0 0 0 0 0 0 127 0" result="hardAlpha"/>
<feOffset/>
<feGaussianBlur stdDeviation="3.65"/>
<feComposite in2="hardAlpha" operator="out"/>
<feColorMatrix type="matrix" values="0 0 0 0 0.239216 0 0 0 0 0.807843 0 0 0 0 0.556863 0 0 0 1 0"/>
<feBlend mode="normal" in2="BackgroundImageFix" result="effect1_dropShadow_113_5"/>
<feBlend mode="normal" in="SourceGraphic" in2="effect1_dropShadow_113_5" result="shape"/>
</filter>
<clipPath id="clip0_113_5">
<rect width="373" height="100" fill="white" transform="translate(2.5 17.3711)"/>
</clipPath>
</defs>
</svg>
