<svg width="847" height="117" viewBox="0 0 847 117" fill="none" xmlns="http://www.w3.org/2000/svg">
<g clip-path="url(#clip0_113_15)">
<path opacity="0.38" d="M9.55859 48.8867L379.659 48.8868" stroke="white" stroke-width="2" stroke-linecap="square"/>
<path opacity="0.38" d="M8.73242 17V112.053" stroke="#DDDDDD" stroke-width="2" stroke-linecap="square"/>
<path opacity="0.38" d="M75.1094 17V112.048" stroke="white" stroke-width="2" stroke-linecap="square"/>
<path opacity="0.38" d="M9.53906 96.0303L379.64 96.0303" stroke="white" stroke-width="2" stroke-linecap="square"/>
<path opacity="0.38" d="M9.55859 66.4648L379.665 66.4649" stroke="white" stroke-width="2" stroke-linecap="square"/>
<path opacity="0.38" d="M9.54883 114.05L379.649 114.05" stroke="white" stroke-width="2" stroke-linecap="square"/>
<path d="M8.54222 115.043V47.843H39.0702C46.3662 47.843 52.7982 49.251 58.3662 52.067C63.9342 54.819 68.2862 58.691 71.4222 63.683C74.5582 68.675 76.1262 74.595 76.1262 81.443C76.1262 88.227 74.5582 94.147 71.4222 99.203C68.2862 104.195 63.9342 108.099 58.3662 110.915C52.7982 113.667 46.3662 115.043 39.0702 115.043H8.54222ZM24.0942 102.275H38.3022C42.7822 102.275 46.6542 101.443 49.9182 99.779C53.2462 98.051 55.8062 95.619 57.5982 92.483C59.4542 89.347 60.3822 85.667 60.3822 81.443C60.3822 77.155 59.4542 73.475 57.5982 70.403C55.8062 67.267 53.2462 64.867 49.9182 63.203C46.6542 61.475 42.7822 60.611 38.3022 60.611H24.0942V102.275ZM102.159 74.915H134.511V87.011H102.159V74.915ZM103.311 102.563H139.887V115.043H87.8547V47.843H138.639V60.323H103.311V102.563ZM174.341 116.195C168.965 116.195 163.813 115.491 158.885 114.083C153.957 112.611 149.989 110.723 146.981 108.419L152.261 96.707C155.141 98.755 158.533 100.451 162.437 101.795C166.405 103.075 170.405 103.715 174.437 103.715C177.509 103.715 179.973 103.427 181.829 102.851C183.749 102.211 185.157 101.347 186.053 100.259C186.949 99.171 187.397 97.923 187.397 96.515C187.397 94.723 186.693 93.315 185.285 92.291C183.877 91.203 182.021 90.339 179.717 89.699C177.413 88.995 174.853 88.355 172.037 87.779C169.285 87.139 166.501 86.371 163.685 85.475C160.933 84.579 158.405 83.427 156.101 82.019C153.797 80.611 151.909 78.755 150.437 76.451C149.029 74.147 148.325 71.203 148.325 67.619C148.325 63.779 149.349 60.291 151.397 57.155C153.509 53.955 156.645 51.427 160.805 49.571C165.029 47.651 170.309 46.691 176.645 46.691C180.869 46.691 185.029 47.203 189.125 48.227C193.221 49.187 196.837 50.659 199.973 52.643L195.173 64.451C192.037 62.659 188.901 61.347 185.765 60.515C182.629 59.619 179.557 59.171 176.549 59.171C173.541 59.171 171.077 59.523 169.157 60.227C167.237 60.931 165.861 61.859 165.029 63.011C164.197 64.099 163.781 65.379 163.781 66.851C163.781 68.579 164.485 69.987 165.893 71.075C167.301 72.099 169.157 72.931 171.461 73.571C173.765 74.211 176.293 74.851 179.045 75.491C181.861 76.131 184.645 76.867 187.397 77.699C190.213 78.531 192.773 79.651 195.077 81.059C197.381 82.467 199.237 84.323 200.645 86.627C202.117 88.931 202.853 91.843 202.853 95.363C202.853 99.139 201.797 102.595 199.685 105.731C197.573 108.867 194.405 111.395 190.181 113.315C186.021 115.235 180.741 116.195 174.341 116.195ZM213.48 115.043V47.843H229.032V115.043H213.48ZM277.428 116.195C272.116 116.195 267.22 115.363 262.74 113.699C258.324 111.971 254.452 109.539 251.124 106.403C247.86 103.267 245.3 99.587 243.444 95.363C241.652 91.139 240.756 86.499 240.756 81.443C240.756 76.387 241.652 71.747 243.444 67.523C245.3 63.299 247.892 59.619 251.22 56.483C254.548 53.347 258.452 50.947 262.932 49.283C267.412 47.555 272.34 46.691 277.716 46.691C283.668 46.691 289.012 47.683 293.748 49.667C298.548 51.651 302.58 54.531 305.844 58.307L295.86 67.523C293.428 64.963 290.772 63.075 287.892 61.859C285.012 60.579 281.876 59.939 278.484 59.939C275.22 59.939 272.244 60.451 269.556 61.475C266.868 62.499 264.532 63.971 262.548 65.891C260.628 67.811 259.124 70.083 258.036 72.707C257.012 75.331 256.5 78.243 256.5 81.443C256.5 84.579 257.012 87.459 258.036 90.083C259.124 92.707 260.628 95.011 262.548 96.995C264.532 98.915 266.836 100.387 269.46 101.411C272.148 102.435 275.092 102.947 278.292 102.947C281.364 102.947 284.34 102.467 287.22 101.507C290.164 100.483 293.012 98.787 295.764 96.419L304.596 107.651C300.948 110.403 296.692 112.515 291.828 113.987C287.028 115.459 282.228 116.195 277.428 116.195ZM290.388 105.635V80.387H304.596V107.651L290.388 105.635ZM319.042 115.043V47.843H331.906L371.554 96.227H365.314V47.843H380.674V115.043H367.906L328.162 66.659H334.402V115.043H319.042Z" fill="#3ECF8E"/>
</g>
<path d="M8.06817 17V0.199999H11.9562V17H8.06817ZM22.932 17L17.436 0.199999H21.468L26.244 15.08H24.228L29.22 0.199999H32.82L37.62 15.08H35.676L40.572 0.199999H44.292L38.796 17H34.62L30.372 3.944H31.476L27.108 17H22.932ZM44.5425 17V0.199999H48.4305V17H44.5425ZM50.4975 17V0.199999H54.3855V13.832H62.8095V17H50.4975ZM63.0619 17V0.199999H66.9499V13.832H75.3739V17H63.0619Z" fill="#3ECF8E" fill-opacity="0.8"/>
<defs>
<clipPath id="clip0_113_15">
<rect width="373" height="100" fill="white" transform="translate(8.07617 17)"/>
</clipPath>
</defs>
</svg>
