<svg width="494" height="159" viewBox="0 0 494 159" fill="none" xmlns="http://www.w3.org/2000/svg">
<path d="M7.968 126V58.8H38.496C45.792 58.8 52.224 60.208 57.792 63.024C63.36 65.776 67.712 69.648 70.848 74.64C73.984 79.632 75.552 85.552 75.552 92.4C75.552 99.184 73.984 105.104 70.848 110.16C67.712 115.152 63.36 119.056 57.792 121.872C52.224 124.624 45.792 126 38.496 126H7.968ZM23.52 113.232H37.728C42.208 113.232 46.08 112.4 49.344 110.736C52.672 109.008 55.232 106.576 57.024 103.44C58.88 100.304 59.808 96.624 59.808 92.4C59.808 88.112 58.88 84.432 57.024 81.36C55.232 78.224 52.672 75.824 49.344 74.16C46.08 72.432 42.208 71.568 37.728 71.568H23.52V113.232ZM101.585 85.872H133.937V97.968H101.585V85.872ZM102.737 113.52H139.312V126H87.2805V58.8H138.065V71.28H102.737V113.52ZM173.767 127.152C168.391 127.152 163.239 126.448 158.311 125.04C153.383 123.568 149.415 121.68 146.407 119.376L151.687 107.664C154.567 109.712 157.959 111.408 161.863 112.752C165.831 114.032 169.831 114.672 173.863 114.672C176.935 114.672 179.399 114.384 181.255 113.808C183.175 113.168 184.583 112.304 185.479 111.216C186.375 110.128 186.823 108.88 186.823 107.472C186.823 105.68 186.119 104.272 184.711 103.248C183.303 102.16 181.447 101.296 179.143 100.656C176.839 99.952 174.279 99.312 171.463 98.736C168.711 98.096 165.927 97.328 163.111 96.432C160.359 95.536 157.831 94.384 155.527 92.976C153.223 91.568 151.335 89.712 149.863 87.408C148.455 85.104 147.751 82.16 147.751 78.576C147.751 74.736 148.775 71.248 150.823 68.112C152.935 64.912 156.071 62.384 160.231 60.528C164.455 58.608 169.735 57.648 176.071 57.648C180.295 57.648 184.455 58.16 188.551 59.184C192.647 60.144 196.263 61.616 199.399 63.6L194.599 75.408C191.463 73.616 188.327 72.304 185.191 71.472C182.055 70.576 178.983 70.128 175.975 70.128C172.967 70.128 170.503 70.48 168.583 71.184C166.663 71.888 165.287 72.816 164.455 73.968C163.623 75.056 163.207 76.336 163.207 77.808C163.207 79.536 163.911 80.944 165.319 82.032C166.727 83.056 168.583 83.888 170.887 84.528C173.191 85.168 175.719 85.808 178.471 86.448C181.287 87.088 184.071 87.824 186.823 88.656C189.639 89.488 192.199 90.608 194.503 92.016C196.807 93.424 198.663 95.28 200.071 97.584C201.543 99.888 202.279 102.8 202.279 106.32C202.279 110.096 201.223 113.552 199.111 116.688C196.999 119.824 193.831 122.352 189.607 124.272C185.447 126.192 180.167 127.152 173.767 127.152ZM212.906 126V58.8H228.458V126H212.906ZM276.854 127.152C271.542 127.152 266.646 126.32 262.166 124.656C257.75 122.928 253.878 120.496 250.549 117.36C247.286 114.224 244.726 110.544 242.87 106.32C241.078 102.096 240.182 97.456 240.182 92.4C240.182 87.344 241.078 82.704 242.87 78.48C244.726 74.256 247.318 70.576 250.646 67.44C253.974 64.304 257.878 61.904 262.358 60.24C266.838 58.512 271.766 57.648 277.142 57.648C283.094 57.648 288.438 58.64 293.174 60.624C297.974 62.608 302.006 65.488 305.27 69.264L295.286 78.48C292.854 75.92 290.198 74.032 287.318 72.816C284.438 71.536 281.302 70.896 277.91 70.896C274.646 70.896 271.67 71.408 268.982 72.432C266.294 73.456 263.958 74.928 261.974 76.848C260.054 78.768 258.55 81.04 257.462 83.664C256.438 86.288 255.926 89.2 255.926 92.4C255.926 95.536 256.438 98.416 257.462 101.04C258.55 103.664 260.054 105.968 261.974 107.952C263.958 109.872 266.262 111.344 268.886 112.368C271.574 113.392 274.518 113.904 277.718 113.904C280.79 113.904 283.766 113.424 286.646 112.464C289.59 111.44 292.438 109.744 295.19 107.376L304.022 118.608C300.374 121.36 296.118 123.472 291.254 124.944C286.454 126.416 281.654 127.152 276.854 127.152ZM289.814 116.592V91.344H304.022V118.608L289.814 116.592ZM318.468 126V58.8H331.332L370.98 107.184H364.74V58.8H380.1V126H367.332L327.588 77.616H333.828V126H318.468Z" fill="#3ECF8E"/>
<path d="M8.992 17V0.199999H12.88V17H8.992ZM23.8559 17L18.3599 0.199999H22.3919L27.1679 15.08H25.1519L30.1439 0.199999H33.7439L38.5439 15.08H36.5999L41.4959 0.199999H45.2159L39.7199 17H35.5439L31.2959 3.944H32.3999L28.0319 17H23.8559ZM45.4664 17V0.199999H49.3544V17H45.4664ZM51.4214 17V0.199999H55.3094V13.832H63.7334V17H51.4214ZM63.9858 17V0.199999H67.8738V13.832H76.2978V17H63.9858Z" fill="#3ECF8E" fill-opacity="0.8"/>
</svg>
